<?xml version="1.0" encoding="UTF-8"?>
<svg width="1769px" height="598px" viewBox="0 0 1769 598" version="1.1" xmlns="http://www.w3.org/2000/svg" xmlns:xlink="http://www.w3.org/1999/xlink">
    <!-- Generator: Sketch 52.6 (67491) - http://www.bohemiancoding.com/sketch -->
    <title>Artboard</title>
    <desc>Created with Sketch.</desc>
    <defs>
        <polygon id="path-1" points="0 1439.99996 2559.99994 1439.99996 2559.99994 0 0 0"></polygon>
    </defs>
    <g id="Artboard" stroke="none" stroke-width="1" fill="none" fill-rule="evenodd">
        <g id="logo-iperity" transform="translate(-396.000000, -421.000000)">
            <g id="g10" transform="translate(1279.999968, 720.000018) scale(-1, 1) rotate(-180.000000) translate(-1279.999968, -720.000018) translate(0.000000, 0.000036)">
                <g id="g12">
                    <g id="g14-Clipped">
                        <mask id="mask-2" fill="white">
                            <use xlink:href="#path-1"></use>
                        </mask>
                        <g id="path16"></g>
                        <g id="g14" mask="url(#mask-2)">
                            <g transform="translate(394.666657, 421.333323)">
                                <g id="g20" transform="translate(388.973324, 118.940797)">
                                    <path d="M49.3333321,273.333326 L4.99733321,264.579993 C2.14799995,264.01866 0.0906666644,261.525327 0.0906666644,258.619994 L0.0906666644,7.15866649 C0.0906666644,3.80266657 2.81199993,1.07999997 6.16799985,1.07999997 L50.5039987,1.07999997 C53.8599987,1.07999997 56.5826653,3.80266657 56.5826653,7.15866649 L56.5826653,267.373327 C56.5826653,269.19466 55.7759986,270.911993 54.3666653,272.06666 C52.9586653,273.22266 51.0106654,273.697326 49.3333321,273.333326" id="path22" fill="#D3115A"></path>
                                </g>
                                <g id="g24" transform="translate(484.763055, 5.452533)">
                                    <path d="M215.999995,246.666661 C215.999995,192.881329 183.709329,155.310663 137.47333,155.310663 C105.357331,155.310663 74.7453315,173.466662 57.2066652,202.813328 L57.2066652,290.519993 C74.7453315,319.866659 105.357331,338.022658 137.47333,338.022658 C183.709329,338.022658 215.999995,300.451992 215.999995,246.666661 M146.226663,385.769324 C110.121331,385.769324 76.3279981,371.222657 52.933332,346.205325 L51.365332,378.242657 C51.2706654,380.01599 50.4159987,381.669324 48.9919988,382.753324 C47.5826655,383.853324 45.7626655,384.249324 44.0213322,383.885324 L5.5253332,375.718657 C2.72399993,375.123991 0.713333315,372.646657 0.713333315,369.774657 L0.713333315,6.87733316 C0.713333315,3.52266658 3.43599991,0.79999998 6.79199983,0.79999998 L51.1279987,0.79999998 C54.4839986,0.79999998 57.2066652,3.52266658 57.2066652,6.87733316 L57.2066652,142.070663 C80.759998,119.98133 112.415997,107.563997 146.226663,107.563997 C217.027995,107.563997 272.491993,168.662662 272.491993,246.666661 C272.491993,324.670659 217.027995,385.769324 146.226663,385.769324" id="path26" fill="#D3115A" fill-rule="nonzero"></path>
                                </g>
                                <g id="g28" transform="translate(785.661447, 112.870397)">
                                    <path d="M187.999995,182.666662 L62.2413318,182.666662 C72.1653315,218.273328 103.363997,231.189328 130.462663,231.189328 C150.390663,231.189328 167.722662,224.311994 177.995996,212.313328 C185.150662,203.971995 188.554662,193.802662 187.999995,182.666662 Z M229.439994,72.6106649 C228.505328,74.0186648 227.033328,74.9679981 225.370661,75.2373315 C223.662661,75.5293314 222.015994,75.0799981 220.669328,74.0426648 C205.442662,62.2493318 177.426662,48.4786655 148.554663,48.4786655 C117.578664,48.4786655 93.8039977,57.2159986 77.8799981,74.4453315 C58.2213319,95.7039976 55.8613319,124.06933 56.2893319,139.58933 L232.557328,139.58933 C235.454661,139.58933 237.939994,141.630663 238.509327,144.471996 C240.170661,152.726663 242.149327,164.598663 242.149327,174.253329 C242.149327,234.569327 194.442662,278.35066 128.72133,278.35066 C65.786665,278.35066 0.698666649,226.971994 0.698666649,140.99733 C0.698666649,59.3853318 56.4946653,0.14533333 133.374663,0.14533333 C179.405329,0.14533333 220.115994,14.8506663 245.093327,40.4933323 C247.103994,42.5519989 247.389327,45.7239989 245.790661,48.1066655 L229.439994,72.6106649 Z" id="path30" fill="#D3115A" fill-rule="nonzero"></path>
                                </g>
                                <g id="g32" transform="translate(1056.083974, 119.221330)">
                                    <path d="M146.666663,271.999993 C110.814664,271.999993 75.0573315,254.943994 53.7359987,228.977328 L51.789332,264.505327 C51.6946654,266.277327 50.8399987,267.915993 49.4159988,268.999993 C48.0066655,270.083993 46.2013322,270.479993 44.4613322,270.115993 L5.96533318,261.949327 C3.16399992,261.355993 1.1533333,258.87866 1.1533333,256.005327 L1.1533333,6.87733316 C1.1533333,3.52266658 3.8759999,0.79999998 7.23199982,0.79999998 L51.5679987,0.79999998 C54.9226653,0.79999998 57.6453319,3.52266658 57.6453319,6.87733316 L57.6453319,156.822663 C57.6453319,176.054662 68.1239983,188.827995 76.9253314,196.165328 C94.2106643,210.569328 120.48533,216.670661 145.574663,212.103995 C147.346663,211.763995 149.166663,212.254661 150.559996,213.410661 C151.93733,214.565328 152.74533,216.275995 152.74533,218.079995 L152.74533,265.921327 C152.74533,269.277327 150.022663,271.999993 146.666663,271.999993" id="path34" fill="#D3115A"></path>
                                </g>
                                <g id="g36" transform="translate(1240.934236, 118.940797)">
                                    <path d="M49.3333321,273.333326 L4.99733321,264.579993 C2.14799995,264.01866 0.0893333311,261.525327 0.0893333311,258.619994 L0.0893333311,7.15866649 C0.0893333311,3.80266657 2.81199993,1.07999997 6.16799985,1.07999997 L50.5039987,1.07999997 C53.8599987,1.07999997 56.5826653,3.80266657 56.5826653,7.15866649 L56.5826653,267.373327 C56.5826653,269.19466 55.7759986,270.911993 54.3666653,272.06666 C52.957332,273.22266 51.0426654,273.697326 49.3333321,273.333326" id="path38" fill="#D3115A"></path>
                                </g>
                                <g id="g40" transform="translate(1330.195967, 112.742131)">
                                    <path d="M161.333329,58.6666652 C159.559996,59.3946652 157.486663,59.2279985 155.839996,58.1839985 C146.89733,52.6039987 136.291997,47.4359988 119.370664,47.4359988 C104.397331,47.4359988 96.2773309,53.253332 96.2773309,83.9519979 L96.2773309,228.982661 L153.798663,228.982661 C157.154663,228.982661 159.877329,231.705328 159.877329,235.061327 L159.877329,265.397327 C159.877329,268.751993 157.154663,271.47466 153.798663,271.47466 L96.2773309,271.47466 L96.2773309,334.243992 C96.2773309,336.063992 95.4706643,337.781325 94.061331,338.937325 C92.6519977,340.091991 90.7373311,340.558658 89.0279978,340.202658 L44.6919989,331.457325 C41.8426656,330.895992 39.783999,328.402658 39.783999,325.498659 L39.783999,271.47466 L7.35199982,271.47466 C3.9959999,271.47466 1.2733333,268.751993 1.2733333,265.397327 L1.2733333,235.061327 C1.2733333,231.705328 3.9959999,228.982661 7.35199982,228.982661 L39.783999,228.982661 L39.783999,88.6226645 C39.783999,50.6959987 46.5279988,0.27466666 104.793331,0.27466666 C133.775997,0.27466666 157.581329,13.8079997 169.183996,25.394666 C170.687996,26.906666 171.289329,29.0906659 170.782662,31.1639992 L164.957329,54.5026653 C164.482663,56.3879986 163.137329,57.9386652 161.333329,58.6666652" id="path42" fill="#D3115A"></path>
                                </g>
                                <g id="g44" transform="translate(1505.697829, 0.161467)">
                                    <path d="M262.66666,381.333324 C261.54266,383.034657 259.64266,384.05599 257.601327,384.05599 L214.419995,384.05599 C211.935995,384.05599 209.703995,382.54399 208.770661,380.233324 L134.406663,193.999995 L57.2733319,380.305324 C56.3239986,382.57599 54.1079986,384.05599 51.6546654,384.05599 L6.13199985,384.05599 C4.08933323,384.05599 2.19066661,383.034657 1.06533331,381.341324 C-0.0573333319,379.639991 -0.263999993,377.494657 0.527999987,375.618657 L104.601331,128.754663 C80.8586646,67.078665 71.1559982,45.6706655 47.5546655,45.6706655 C44.1839989,45.6706655 37.7733324,47.1186655 30.8239992,49.4373321 C28.9559993,50.0626654 26.930666,49.7533321 25.346666,48.6066655 C23.7493327,47.4666655 22.8146661,45.6306655 22.8146661,43.6759989 L22.8146661,13.917333 C22.8146661,11.781333 23.9386661,9.80266642 25.774666,8.70266645 C29.7159993,6.33599984 40.6533323,0.834666646 56.8933319,0.834666646 C90.4666644,0.834666646 113.386664,22.5279994 136.02133,75.7213314 L263.205327,375.603991 C263.995993,377.478657 263.79066,379.631991 262.66666,381.333324" id="path46" fill="#D3115A"></path>
                                </g>
                                <g id="g48" transform="translate(554.037719, 28.076133)">
                                    <path d="M1.3333333,1.3333333 C1.4013333,1.34799997 1.4693333,1.35999997 1.53733329,1.37466663 C1.49999996,1.37866663 1.45999996,1.38266663 1.4213333,1.38799997 C1.39199997,1.3693333 1.36266663,1.3493333 1.3333333,1.3333333" id="path50" fill="#D3115A"></path>
                                </g>
                                <g id="g52" transform="translate(1.276667, 113.231731)">
                                    <path d="M429.333323,346.666658 C426.869323,342.275991 422.842656,339.106658 417.997323,337.743992 C416.302656,337.266658 414.57599,337.025325 412.86399,337.025325 C404.474657,337.025325 397.02399,342.685325 394.745323,350.787991 C393.382657,355.634658 393.989323,360.722658 396.45199,365.113324 C398.91599,369.505324 402.942657,372.674657 407.789323,374.037324 C409.48399,374.514657 411.210656,374.755991 412.921323,374.755991 C421.310656,374.755991 428.761323,369.095991 431.039989,360.993324 C432.403989,356.145324 431.797323,351.057325 429.333323,346.666658 Z M241.261327,356.361324 C241.266661,356.461324 241.269327,356.562658 241.273327,356.662658 C241.269327,356.562658 241.266661,356.461324 241.261327,356.361324 Z M241.374661,359.357324 C241.398661,360.369324 241.413327,361.385324 241.413327,362.403991 C241.413327,361.385324 241.399994,360.369324 241.374661,359.357324 Z M120.711997,277.70266 C74.0079981,277.70266 36.0106658,315.698659 36.0106658,362.403991 C36.0106658,409.10799 74.0079981,447.105322 120.711997,447.105322 C167.415996,447.105322 205.413328,409.10799 205.413328,362.403991 C205.413328,315.698659 167.415996,277.70266 120.711997,277.70266 Z M168.707996,251.631994 C168.895996,251.713327 169.083996,251.795994 169.271996,251.87866 C169.083996,251.795994 168.895996,251.713327 168.707996,251.631994 Z M215.242661,137.230663 C215.438661,137.286663 215.633328,137.342663 215.829328,137.39733 C215.633328,137.342663 215.438661,137.286663 215.242661,137.230663 Z M208.617328,134.96933 C208.810661,135.04533 209.005328,135.122663 209.199995,135.19733 C209.005328,135.122663 208.810661,135.046663 208.617328,134.96933 Z M202.333328,132.090663 C202.507995,132.18133 202.685328,132.271997 202.861328,132.36133 C202.685328,132.271997 202.507995,132.18133 202.333328,132.090663 Z M234.526661,103.934664 C243.551994,103.918664 252.029327,100.389331 258.399994,93.9986643 C264.769327,87.6066645 268.269327,79.115998 268.253327,70.0906649 C268.22266,51.493332 253.06666,36.3639991 234.410661,36.3639991 C225.386661,36.3799991 216.907995,39.907999 210.537328,46.3013322 C204.166662,52.693332 200.667995,61.1826651 200.683995,70.2079982 C200.715995,88.8053311 215.870661,103.934664 234.466661,103.934664 L234.526661,103.934664 Z M465.695988,370.738657 C458.891989,394.934657 436.878656,410.75599 412.921323,410.75599 C408.005323,410.75599 403.010657,410.089323 398.045323,408.693323 C377.461324,402.905323 362.955991,386.110657 359.077324,366.477324 C359.077324,366.477324 359.077324,366.478658 359.077324,366.478658 L241.226661,369.074657 C237.763994,432.633323 185.134662,483.105321 120.711997,483.105321 C54.0506653,483.105321 0.0106666664,429.065323 0.0106666664,362.403991 C0.0106666664,295.742659 54.0506653,241.702661 120.711997,241.702661 C132.92133,241.702661 144.70533,243.522661 155.813329,246.89466 L200.502662,131.10933 C179.175996,119.198664 164.727996,96.4359976 164.683996,70.2693316 C164.615996,31.7279992 195.806662,0.430666656 234.347994,0.363999991 L234.471994,0.363999991 C272.957327,0.363999991 304.187992,31.5279992 304.253326,70.0279982 C304.319992,108.570664 273.13066,139.867997 234.589327,139.934663 L234.466661,139.934663 C228.747994,139.934663 223.195994,139.231997 217.877328,137.934663 L173.201329,253.685327 C210.154661,271.55866 236.609327,307.718659 240.819994,350.413325 L240.819994,350.411991 L358.650658,347.817325 C358.989324,345.558658 359.455991,343.297325 360.089324,341.042658 C366.893324,316.845325 388.90799,301.025326 412.86399,301.025326 C417.77999,301.025326 422.775989,301.690659 427.741323,303.086659 C456.903989,311.287992 473.895988,341.575991 465.695988,370.738657 Z" id="path54" fill="#D3115A" fill-rule="nonzero"></path>
                                </g>
                            </g>
                        </g>
                    </g>
                </g>
            </g>
        </g>
    </g>
</svg>