<?xml version="1.0" encoding="utf-8"?>
<!-- Generator: Adobe Illustrator 22.1.0, SVG Export Plug-In . SVG Version: 6.00 Build 0)  -->
<svg version="1.1" id="Layer_1" xmlns="http://www.w3.org/2000/svg" xmlns:xlink="http://www.w3.org/1999/xlink" x="0px" y="0px"
	 viewBox="0 0 668.1 181" style="enable-background:new 0 0 668.1 181;" xml:space="preserve">
<style type="text/css">
	.st0{fill:#75787B;}
	.st1{fill:#FF7D00;}
</style>
<path class="st0" d="M28.4,139.2c-8.6,0-21.1-1.7-28.2-3.5l4-14.5c7.3,2.6,17.2,3.4,25.5,3.4c14.4,0,24.1-5.8,23.8-15.2
	C52.7,87.1,1.2,101,0,66.1c-0.6-17,13.8-29.7,43.6-29.7c6.8,0,18.3,1.7,25.1,2.9l-4,14.5c-6.6-1.8-15-3.6-22.4-3.6
	c-14.9,0-21.6,5.6-21.4,14.2c0.7,22,52.5,9.4,53.7,43.1C75.2,125.6,57.6,139.2,28.4,139.2z"/>
<path class="st0" d="M288.5,88h-73.1c-0.7,25,11,36.8,35.3,36.8c10.8,0,22.1-2,32-5.9l2.9,14.3c-11.3,4-24.8,6.3-38.7,6.3
	c-34,0-52.4-16.2-52.4-51.5c0-29.9,18.7-52.5,50.4-52.5c31.3,0,44.3,18.8,44.3,41.2C289.2,79.1,289,83.9,288.5,88z M243.5,49.2
	c-14.6,0-25.2,9.5-27.7,25.8h52.7C268.9,58.7,259.2,49.2,243.5,49.2z"/>
<path class="st0" d="M464.9,137.6l-41.4-51.7v51.7h-20.3V0h20.3v81.3l39.4-44h24.5l-43,45.8l46.4,54.5H464.9z"/>
<path class="st1" d="M627.2,35.5c-16.6,0-29.4,7.4-36.2,19.6V37.3h-0.1h-19.6h-0.6v48.1c0,22.2-13.3,39.2-31.7,39.2
	c-14.6,0-19.1-8.5-19.1-22.6V37.3h-20v70.1c0,17.8,7.9,32.1,33.5,32.1c17.8,0,31-8.1,38-20.3V181h20.3v-43.4
	c6.5,1,11.9,1.2,18.9,1.2c36.2,0,57.6-20.4,57.6-56.1C668.1,52,653.3,35.5,627.2,35.5z M611.4,124.7c-7.7,0-14-0.8-19.8-2.4V89.2
	c0-17.6,10.4-38.8,30.6-38.8c16.9,0,24.8,12.3,24.8,33.9C647,113.2,632.6,124.7,611.4,124.7z"/>
<path class="st0" d="M144,35.5c-16.5,0-29.2,7.3-36,19.4V37.3h-0.2H88.2v28.2V181h20.3v-43.4c6.5,1,11.9,1.2,18.9,1.2
	c36.2,0,57.6-20.4,57.6-56.1C185,52,170.1,35.5,144,35.5z M128.2,124.7c-7.7,0-14-0.8-19.8-2.4V89.2c0-17.6,10.4-38.8,30.6-38.8
	c16.9,0,24.8,12.3,24.8,33.9C163.8,113.2,149.4,124.7,128.2,124.7z"/>
<path class="st0" d="M343.6,35.3C329,35.3,317,38,306.2,42l3.8,14.3c9.7-4,20.4-6.8,30.9-6.8c17.6,0,23.6,7.7,23.6,23.6v4.6
	c-42.8,0-67.3,12.9-67.3,34.5c0,16.2,12.6,27.1,31.1,27.1c17.8,0,31.5-8.8,37.4-20.4v18.6h16.8h2.3c0,0,0-26.1,0-28.9V70.4
	C384.8,48.8,374.9,35.3,343.6,35.3z M364.6,93.2c0,15.8-12.2,31.9-30.2,31.9c-10.4,0-17.1-6.7-17.1-15.3c0-10.1,10.6-19.2,47.3-19.2
	V93.2z"/>
</svg>
