<svg id="Layer_1" data-name="Layer 1" xmlns="http://www.w3.org/2000/svg" viewBox="0 0 118 30"><defs><style>.cls-1{fill:#f05a28;}.cls-2{fill:#384053;}</style></defs><title>VoIPGRID Logo</title><rect class="cls-1" x="49.45" y="27.75" width="18.47" height="2.25"/><rect class="cls-2" x="35.58" y="0.26" width="4.65" height="18.98"/><path class="cls-2" d="M71.93,11.87h3.23v3.2a8.26,8.26,0,0,1-5.95,2.77c-4.31,0-7.51-3.45-7.51-8.1,0-4.5,3.1-8,7.67-8A9.31,9.31,0,0,1,75,3.61l1-1.4A10.22,10.22,0,0,0,69.29,0a9.5,9.5,0,0,0-9.53,9.77c0,5.63,4.09,9.8,9.26,9.8A8.46,8.46,0,0,0,75.19,17h0.05s0,0.4,0,.81v1.43h1.72v-9h-5v1.67Z"/><path class="cls-2" d="M88.59,10.87V10.82a5.06,5.06,0,0,0,3.58-5.11A5.05,5.05,0,0,0,89.32.83,8.42,8.42,0,0,0,85.76.32h-5.6V19.24H82v-8h4.77l4.28,8h2.13l-4.12-7.62A7.32,7.32,0,0,0,88.59,10.87ZM86.52,9.61H82V2h3.82a5.44,5.44,0,0,1,2.69.46,3.51,3.51,0,0,1,1.72,3.31A3.54,3.54,0,0,1,86.52,9.61Z"/><rect class="cls-2" x="96.05" y="0.32" width="1.86" height="18.92"/><path class="cls-2" d="M108.5,0.32h-6.11V19.24h6.11c5.68,0,9.5-3.45,9.5-9.47S114.18,0.32,108.5.32Zm-0.19,17.25h-4.07V2h4.07c4.63,0,7.75,2.75,7.75,7.78S113,17.58,108.31,17.58Z"/><path class="cls-2" d="M13.28,0.26l-3.4,10.8c-0.37,1.19-.72,3.05-0.72,3.05H9.11s-0.35-1.86-.72-3.05L5,0.26H0l6.72,19h4.83l6.69-19h-5Z"/><path class="cls-2" d="M25.26,4.57a7.42,7.42,0,0,0-7.73,7.54c0,4.48,3.45,7.45,7.75,7.45S33,16.58,33,12.1A7.43,7.43,0,0,0,25.26,4.57Zm0,11a3.17,3.17,0,0,1-3.11-3.45,3.13,3.13,0,1,1,6.21,0A3.17,3.17,0,0,1,25.28,15.55Z"/><path class="cls-2" d="M51.26,0.26H43.37v19H48V13.37h3.24c3.69,0,6.19-2.76,6.19-6.58S54.95,0.26,51.26.26Zm-1,9.13H48V4.24h2.36a2.25,2.25,0,0,1,2.34,2.55A2.31,2.31,0,0,1,50.3,9.39Z"/></svg>
