<?xml version="1.0" encoding="utf-8"?>
<!-- Generator: Adobe Illustrator 16.0.0, SVG Export Plug-In . SVG Version: 6.00 Build 0)  -->
<!DOCTYPE svg PUBLIC "-//W3C//DTD SVG 1.1//EN" "http://www.w3.org/Graphics/SVG/1.1/DTD/svg11.dtd">
<svg version="1.1" id="Layer_1" xmlns="http://www.w3.org/2000/svg" xmlns:xlink="http://www.w3.org/1999/xlink" x="0px" y="0px"
	 width="1000px" height="1000px" viewBox="140 -100 1000 1000" enable-background="new 140 -100 1000 1000" xml:space="preserve">
<g>
	<g>
		<defs>
			<rect id="SVGID_1_" x="152.5" y="-92.5" width="975" height="975"/>
		</defs>
		<clipPath id="SVGID_2_">
			<use xlink:href="#SVGID_1_"  overflow="visible"/>
		</clipPath>
		<path clip-path="url(#SVGID_2_)" fill="#D70019" d="M640,882.5c269.208,0,487.5-218.292,487.5-487.5S909.208-92.5,640-92.5
			S152.5,125.792,152.5,395S370.792,882.5,640,882.5"/>
	</g>
</g>
<g>
	<path fill="#FFFFFF" d="M462.116,406.808h-43.657V386.55h-0.651c-1.949,2.708-4.333,5.525-7.474,8.342
		c-3.034,2.816-6.609,5.417-10.725,7.691c-4.117,2.384-8.667,4.225-13.65,5.742c-4.984,1.517-10.076,2.167-15.384,2.167
		c-11.375,0-21.775-1.95-30.983-5.851c-9.316-3.899-17.225-9.425-23.834-16.467c-6.607-7.042-11.808-15.492-15.382-25.133
		c-3.575-9.642-5.417-20.367-5.417-31.959c0-10.725,1.625-21.016,4.875-30.875c3.25-9.75,7.909-18.525,13.867-26.109
		c5.959-7.583,13.325-13.649,21.992-18.2c8.666-4.55,18.417-6.825,29.466-6.825c9.859,0,19.175,1.516,27.626,4.55
		c8.557,3.033,15.599,8.233,21.016,15.6h0.651V167.392h47.45v239.416H462.116z M418.459,330c0-11.591-3.359-21.016-9.967-28.167
		c-6.608-7.15-15.925-10.725-27.95-10.725c-12.026,0-21.342,3.574-27.951,10.725c-6.608,7.15-9.966,16.576-9.966,28.167
		s3.358,21.016,9.966,28.167c6.608,7.15,15.925,10.725,27.951,10.725c12.025,0,21.342-3.574,27.95-10.725
		C415.1,351.016,418.459,341.591,418.459,330"/>
	<path fill="#FFFFFF" d="M636.858,380.267c-7.583,9.75-17.225,17.225-28.816,22.425c-11.592,5.308-23.617,7.908-36.076,7.908
		c-11.808,0-22.966-1.949-33.366-5.741c-10.399-3.791-19.5-9.208-27.192-16.25c-7.691-7.042-13.758-15.493-18.2-25.458
		c-4.441-9.858-6.608-21.017-6.608-33.259s2.167-23.292,6.608-33.258c4.442-9.859,10.509-18.417,18.2-25.459
		c7.691-7.041,16.792-12.458,27.192-16.249c10.4-3.792,21.558-5.634,33.366-5.634c10.942,0,20.909,1.841,29.9,5.634
		c8.993,3.791,16.576,9.208,22.75,16.249c6.176,7.042,11.05,15.601,14.409,25.459c3.357,9.966,5.092,21.016,5.092,33.258v14.842
		H534.05c1.95,9.1,6.067,16.25,12.35,21.667s14.084,8.125,23.4,8.125c7.8,0,14.408-1.734,19.716-5.2
		c5.417-3.466,10.076-7.908,14.084-13.434L636.858,380.267z M596.667,312.559c0.217-8.017-2.383-14.842-7.908-20.583
		c-5.525-5.742-12.567-8.559-21.233-8.559c-5.308,0-9.858,0.868-13.867,2.493c-4.008,1.732-7.476,3.899-10.292,6.5
		c-2.815,2.6-5.091,5.742-6.608,9.208c-1.624,3.466-2.491,7.15-2.708,10.942H596.667z"/>
	<path fill="#FFFFFF" d="M763.5,387.525h-0.65c-5.309,8.232-12.242,14.083-21.016,17.766c-8.776,3.576-17.984,5.417-27.626,5.417
		c-7.15,0-14.082-0.975-20.692-3.032c-6.607-2.06-12.457-4.984-17.548-8.993c-5.093-4.008-9.102-8.991-12.026-14.841
		c-2.926-5.849-4.44-12.783-4.44-20.583c0-8.883,1.623-16.357,4.874-22.424c3.251-6.067,7.691-11.159,13.325-15.167
		c5.633-4.008,11.916-7.15,19.175-9.316c7.15-2.167,14.625-3.792,22.317-4.875c7.691-1.084,15.383-1.734,23.073-1.951
		c7.693-0.217,14.844-0.325,21.343-0.325c0-8.449-3.033-15.166-8.992-20.042c-5.958-4.983-13.108-7.475-21.342-7.475
		c-7.799,0-14.949,1.624-21.341,4.875s-12.134,7.8-17.225,13.433l-25.46-26c8.885-8.233,19.176-14.408,30.985-18.524
		c11.808-4.117,24.049-6.175,36.724-6.175c13.867,0,25.351,1.734,34.342,5.2c8.991,3.467,16.142,8.559,21.559,15.383
		c5.416,6.716,9.1,15.059,11.267,24.809c2.058,9.859,3.143,21.125,3.143,34.017v78.107H763.5V387.525z M751.801,339.425
		c-3.576,0-8.018,0.108-13.435,0.434c-5.417,0.324-10.508,1.191-15.491,2.708c-4.984,1.517-9.208,3.683-12.675,6.608
		s-5.2,7.042-5.2,12.35c0,5.741,2.383,9.966,7.259,12.674c4.874,2.708,9.857,4.117,15.167,4.117c4.657,0,9.1-0.649,13.434-1.949
		c4.332-1.3,8.125-3.034,11.591-5.417c3.357-2.276,6.065-5.308,8.017-8.884c1.95-3.575,3.033-7.8,3.033-12.674v-10.076h-11.699
		V339.425z"/>
	<path fill="#FFFFFF" d="M836.949,253.083h45.501v20.908h0.649c1.517-2.924,3.575-5.958,6.284-8.883
		c2.708-2.925,5.959-5.633,9.857-7.908c3.792-2.275,8.125-4.225,13.001-5.742c4.874-1.517,10.075-2.167,15.815-2.167
		c12.025,0,21.667,1.841,29.143,5.525c7.366,3.684,13.108,8.775,17.225,15.383c4.117,6.5,6.934,14.192,8.342,23.075
		c1.517,8.884,2.166,18.417,2.166,28.817v84.716h-47.45v-75.291c0-4.442-0.108-8.991-0.432-13.758
		c-0.325-4.766-1.3-9.1-2.817-13.108c-1.625-4.008-4.008-7.259-7.259-9.859c-3.25-2.491-7.908-3.792-14.084-3.792
		c-6.065,0-11.049,1.083-14.84,3.358c-3.793,2.167-6.718,5.2-8.667,8.884c-2.06,3.683-3.359,7.799-3.9,12.458
		c-0.65,4.658-0.975,9.533-0.975,14.516v76.591h-47.451V253.083H836.949z"/>
	<path fill="#FFFFFF" d="M544.125,544.066c0,11.159-1.95,21.559-5.85,30.983c-3.9,9.533-9.316,17.658-16.25,24.7
		c-6.934,6.934-15.275,12.351-24.808,16.25c-9.642,3.9-20.151,5.85-31.742,5.85c-11.375,0-21.883-1.949-31.525-5.85
		c-9.642-3.899-17.875-9.316-24.809-16.25c-6.932-6.934-12.349-15.167-16.25-24.7c-3.9-9.533-5.849-19.824-5.849-30.983
		c0-11.158,1.949-21.558,5.849-30.982c3.901-9.534,9.318-17.768,16.25-24.701c6.934-6.933,15.275-12.35,24.809-16.25
		c9.642-3.899,20.042-5.85,31.525-5.85c11.591,0,22.208,1.95,31.742,5.85c9.641,3.9,17.874,9.317,24.808,16.25
		c6.934,6.934,12.35,15.167,16.25,24.701C542.175,522.617,544.125,532.908,544.125,544.066 M521.375,544.066
		c0-8.233-1.3-15.924-4.008-23.074c-2.601-7.15-6.393-13.434-11.267-18.634c-4.875-5.308-10.725-9.425-17.55-12.458
		c-6.825-3.034-14.625-4.551-23.292-4.551s-16.358,1.517-23.292,4.551c-6.825,3.033-12.674,7.259-17.441,12.458
		c-4.766,5.309-8.45,11.483-11.05,18.634c-2.6,7.15-3.9,14.841-3.9,23.074s1.3,15.925,3.9,23.075
		c2.6,7.15,6.284,13.434,11.05,18.633c4.767,5.309,10.508,9.426,17.441,12.459c6.825,3.034,14.625,4.551,23.292,4.551
		s16.358-1.517,23.292-4.551c6.825-3.033,12.674-7.259,17.55-12.459c4.875-5.308,8.559-11.482,11.267-18.633
		C520.076,559.991,521.375,552.3,521.375,544.066"/>
	<path fill="#FFFFFF" d="M601.975,470.075c0.434,4.009,0.65,7.908,0.759,11.917c0.108,3.899,0.108,7.8,0.108,11.808h0.649
		c2.274-4.008,5.308-7.691,8.883-11.05c3.576-3.357,7.584-6.283,12.026-8.666c4.441-2.385,9.1-4.334,14.083-5.742
		c4.984-1.408,9.858-2.059,14.733-2.059c18.958,0,33.042,4.984,42.033,15.059c9.1,9.967,13.541,24.266,13.541,42.9v93.924h-20.907
		v-81.898c0-16.468-2.816-29.034-8.559-37.809c-5.634-8.775-16.25-13.109-31.634-13.109c-1.083,0-4.009,0.434-8.883,1.3
		c-4.876,0.868-9.967,3.143-15.384,6.934c-5.417,3.791-10.183,9.533-14.408,17.117c-4.225,7.583-6.283,18.091-6.283,31.633v75.941
		h-20.909V502.683c0-4.008-0.108-9.1-0.434-15.165c-0.324-6.067-0.649-11.918-1.083-17.442H601.975L601.975,470.075z"/>
	<path fill="#FFFFFF" d="M766.641,549.809c0.651,7.366,2.385,14.3,5.417,20.908c2.925,6.499,6.826,12.133,11.701,16.9
		c4.874,4.766,10.399,8.45,16.791,11.266c6.284,2.708,13.218,4.116,20.583,4.116c11.159,0,20.801-2.6,28.926-7.799
		c8.125-5.2,14.299-11.159,18.524-17.876l16.142,13.326c-8.883,11.157-18.633,19.174-29.249,24.05
		c-10.617,4.875-22.101,7.258-34.343,7.258c-10.941,0-21.124-1.949-30.549-5.85c-9.426-3.899-17.441-9.316-24.158-16.25
		s-12.025-15.167-15.927-24.7c-3.899-9.533-5.849-19.824-5.849-30.983c0-11.158,1.949-21.558,5.74-30.982
		c3.793-9.534,9.102-17.768,15.818-24.7c6.716-6.934,14.624-12.351,23.724-16.25c9.102-3.9,18.851-5.851,29.359-5.851
		c11.157,0,21.233,1.95,30.009,5.959c8.883,4.008,16.25,9.316,22.316,15.924c5.957,6.608,10.616,14.408,13.758,23.4
		c3.141,8.991,4.767,18.525,4.767,28.601v9.533H766.641z M867.283,532.691c0-14.083-4.226-25.566-12.674-34.341
		c-8.451-8.775-20.26-13.109-35.426-13.109c-6.717,0-13.324,1.3-19.608,4.008c-6.283,2.601-11.917,6.176-16.576,10.618
		c-4.766,4.44-8.557,9.533-11.374,15.166c-2.816,5.741-4.225,11.592-4.225,17.767h99.883V532.691z"/>
	<path fill="#FFFFFF" d="M952.867,463.899c0,10.726-8.668,19.393-19.393,19.393s-19.391-8.667-19.391-19.393
		c0-10.725,8.666-19.392,19.391-19.392C944.199,444.616,952.867,453.283,952.867,463.899"/>
</g>
</svg>
