<?xml version="1.0" encoding="UTF-8" standalone="no"?>
<svg
   xmlns:dc="http://purl.org/dc/elements/1.1/"
   xmlns:cc="http://creativecommons.org/ns#"
   xmlns:rdf="http://www.w3.org/1999/02/22-rdf-syntax-ns#"
   xmlns:svg="http://www.w3.org/2000/svg"
   xmlns="http://www.w3.org/2000/svg"
   xmlns:sodipodi="http://sodipodi.sourceforge.net/DTD/sodipodi-0.dtd"
   xmlns:inkscape="http://www.inkscape.org/namespaces/inkscape"
   version="1.1"
   id="svg29"
   xml:space="preserve"
   width="757.89001pt"
   height="187.27583pt"
   viewBox="0 0 1010.5228 249.70142"
   sodipodi:docname="Speakup 2020 white bg noborder.svg"
   inkscape:version="1.0.2 (e86c870879, 2021-01-15)"><sodipodi:namedview
     pagecolor="#ffffff"
     bordercolor="#666666"
     borderopacity="1"
     objecttolerance="10"
     gridtolerance="10"
     guidetolerance="10"
     inkscape:pageopacity="0"
     inkscape:pageshadow="2"
     inkscape:window-width="2502"
     inkscape:window-height="1367"
     id="namedview19"
     showgrid="false"
     units="pt"
     inkscape:zoom="1.1750347"
     inkscape:cx="561.26001"
     inkscape:cy="396.85057"
     inkscape:window-x="0"
     inkscape:window-y="27"
     inkscape:window-maximized="0"
     inkscape:current-layer="svg29" /><metadata
     id="metadata35"><rdf:RDF><cc:Work
         rdf:about=""><dc:format>image/svg+xml</dc:format><dc:type
           rdf:resource="http://purl.org/dc/dcmitype/StillImage" /><dc:title></dc:title></cc:Work></rdf:RDF></metadata><defs
     id="defs33"><clipPath
       clipPathUnits="userSpaceOnUse"
       id="clipPath47"><path
         d="M 0,595.276 H 841.89 V 0 H 0 Z"
         id="path45" /></clipPath></defs><g
     id="g33"
     transform="translate(-54.000069,-256.00006)"><g
       style="fill:#ff9515;fill-opacity:1"
       transform="matrix(3.8108776,0,0,-3.8108776,116.13833,366.03054)"
       id="g49"><path
         id="path51"
         style="fill:#ff9515;fill-opacity:1;fill-rule:nonzero;stroke:none"
         d="m 0,0 c -3.42,1.358 -5.658,2.565 -5.658,4.351 0,2.174 2.275,3.067 3.885,3.067 2.803,0 6.047,-1.144 8.926,-3.81 l 4.1,6.4 c -3.986,3.206 -8.085,4.451 -12.599,4.451 -7.267,0 -12.535,-4.275 -12.535,-10.071 0,-6.978 5.017,-9.657 10.851,-11.643 4.664,-1.609 7.053,-2.502 7.053,-4.349 0,-2.063 -1.848,-3.484 -4.979,-3.484 -4.388,0 -7.405,1.383 -10.26,4.199 l -4.124,-6.123 c 3.773,-3.319 8.651,-5.205 14.384,-5.205 9.04,0 13.277,4.816 13.277,10.788 C 12.321,-4.338 7.544,-2.98 0,0" /></g><g
       style="fill:#ff9515;fill-opacity:1"
       transform="matrix(3.8108776,0,0,-3.8108776,258.60723,422.47535)"
       id="g53"><path
         id="path55"
         style="fill:#ff9515;fill-opacity:1;fill-rule:nonzero;stroke:none"
         d="m 0,0 c -5.809,0 -10.398,4.313 -10.398,10.763 0,6.299 4.237,11.102 10.36,11.102 5.696,0 10.26,-4.275 10.26,-11.102 C 10.222,4.451 6.022,0 0,0 m 1.357,29.271 c -4.702,0 -8.586,-1.672 -11.29,-4.841 h -0.138 v 4.313 h -8.16 v -49.798 h 8.16 v 18.604 h 0.1 c 2.603,-3.169 6.412,-4.954 11.253,-4.954 9.858,0 17.239,7.192 17.239,18.193 0,10.763 -7.381,18.483 -17.164,18.483" /></g><g
       style="fill:#ff9515;fill-opacity:1"
       transform="matrix(3.8108776,0,0,-3.8108776,386.44273,366.41391)"
       id="g57"><path
         id="path59"
         style="fill:#ff9515;fill-opacity:1;fill-rule:nonzero;stroke:none"
         d="m 0,0 c 1.17,4.627 4.702,7.154 9.153,7.154 4.665,0 7.619,-2.842 8.651,-7.154 z m 25.989,-3.344 c 0,10.36 -6.764,17.904 -17.263,17.904 -9.908,0 -17.351,-7.406 -17.351,-18.294 0,-11.115 7.833,-18.382 18.206,-18.382 6.978,0 11.957,2.854 14.987,6.739 l -5.696,4.878 c -1.822,-2.288 -4.739,-4.212 -8.863,-4.212 -5.243,0 -9.091,3.068 -10.159,8.123 h 25.925 c 0.114,0.641 0.214,1.999 0.214,3.244" /></g><g
       style="fill:#ff9515;fill-opacity:1"
       transform="matrix(3.8108776,0,0,-3.8108776,580.2876,422.47535)"
       id="g61"><path
         id="path63"
         style="fill:#ff9515;fill-opacity:1;fill-rule:nonzero;stroke:none"
         d="m 0,0 c -6.01,0 -10.222,4.451 -10.222,10.763 0,6.827 4.564,11.102 10.26,11.102 5.846,0 10.083,-4.803 10.083,-11.102 C 10.121,4.313 5.52,0 0,0 M 9.794,28.743 V 24.468 H 9.656 c -2.678,3.168 -6.488,4.803 -11.002,4.803 -9.794,0 -17.162,-7.72 -17.162,-18.483 0,-11.001 7.368,-18.193 17.226,-18.193 4.916,0 8.725,1.924 11.328,5.343 h 0.1 v -4.765 h 7.808 v 35.57 z" /></g><g
       style="fill:#ff9515;fill-opacity:1"
       transform="matrix(3.8108776,0,0,-3.8108776,751.92228,367.75534)"
       id="g65"><path
         id="path67"
         style="fill:#ff9515;fill-opacity:1;fill-rule:nonzero;stroke:none"
         d="M 0,0 12.824,14.384 H 3.144 L -11.392,-1.861 h -0.1 v 30.472 h -8.16 v -49.797 h 8.16 v 8.299 l 5.947,6.651 h 0.139 l 9.216,-14.95 h 9.191 z" /></g><g
       style="fill:#292929;fill-opacity:1"
       transform="matrix(3.8108776,0,0,-3.8108776,990.41119,422.47535)"
       id="g69"><path
         id="path71"
         style="fill:#292929;fill-opacity:1;fill-rule:nonzero;stroke:none"
         d="m 0,0 c -5.017,0 -9.128,3.219 -10.146,8.261 -0.164,0.792 -0.252,1.622 -0.252,2.502 0,0.893 0.088,1.76 0.252,2.577 0.993,4.992 4.853,8.525 10.108,8.525 5.696,0 10.26,-4.275 10.26,-11.102 C 10.222,4.451 6.022,0 0,0 m 1.358,29.271 c -4.703,0 -8.587,-1.672 -11.291,-4.841 h -0.138 v 4.313 h -8.236 V 11.719 c 0,-7.696 -4.375,-11.681 -9.14,-11.681 -4.916,0 -7.054,2.138 -7.054,9.267 V 28.743 H -42.66 V 7.092 c 0,-10.574 5.456,-14.497 13.289,-14.497 4.162,0 8.11,1.785 10.964,5.205 h 0.1 v -4.627 h 0.076 v -14.228 h 8.16 v 18.604 h 0.1 c 2.603,-3.169 6.412,-4.954 11.253,-4.954 9.858,0 17.239,7.192 17.239,18.193 0,10.763 -7.381,18.483 -17.163,18.483" /></g></g></svg>
