<?xml version="1.0" encoding="utf-8"?>
<!-- Generator: Adobe Illustrator 17.1.0, SVG Export Plug-In . SVG Version: 6.00 Build 0)  -->
<!DOCTYPE svg PUBLIC "-//W3C//DTD SVG 1.1//EN" "http://www.w3.org/Graphics/SVG/1.1/DTD/svg11.dtd">
<svg version="1.1" id="Layer_1" xmlns="http://www.w3.org/2000/svg" xmlns:xlink="http://www.w3.org/1999/xlink" x="0px" y="0px"
	 viewBox="0 0 315 82" enable-background="new 0 0 315 82" xml:space="preserve">
<g>
	<path d="M252.2,58.4V25.7h7.9v32.6H252.2z"/>
	<path d="M280.9,32.5v25.9H273V32.5h-9.2v-6.7h26.3v6.7H280.9z"/>
</g>
<g>
	<path d="M50.8,57.8c-2.1,1-4.6,1.5-7.3,1.5c-2.5,0-4.9-0.4-7-1.2c-2.1-0.8-4-2-5.6-3.5c-1.6-1.5-2.8-3.3-3.7-5.5
		c-0.9-2.1-1.3-4.5-1.3-7c0-2.6,0.5-5,1.4-7.1c0.9-2.1,2.2-3.9,3.8-5.4c1.6-1.5,3.5-2.6,5.6-3.4c2.2-0.8,4.5-1.2,7-1.2
		c2.3,0,4.6,0.4,6.8,1.2c2.2,0.8,4,2,5.4,3.6L50.4,35c-0.7-1-1.7-1.8-2.9-2.3c-1.2-0.5-2.4-0.7-3.7-0.7c-1.4,0-2.7,0.3-3.8,0.8
		s-2.1,1.2-3,2.1c-0.8,0.9-1.5,1.9-1.9,3.2c-0.5,1.2-0.7,2.5-0.7,4c0,1.5,0.2,2.8,0.7,4.1c0.5,1.2,1.1,2.3,1.9,3.2
		c0.8,0.9,1.8,1.6,2.9,2.1c1.1,0.5,2.4,0.7,3.7,0.7c1.6,0,2.9-0.3,4.1-0.9c1.2-0.6,2.1-1.4,2.8-2.4l5.5,5.2
		C54.7,55.5,52.9,56.8,50.8,57.8z"/>
	<path d="M93.5,41.9c0,2.6-0.4,4.9-1.3,7.1c-0.9,2.1-2.1,4-3.7,5.5C86.9,56,85,57.2,82.8,58c-2.2,0.8-4.5,1.2-7.1,1.2
		s-4.9-0.4-7.1-1.2c-2.2-0.8-4-2-5.6-3.5c-1.6-1.5-2.8-3.4-3.7-5.5c-0.9-2.1-1.3-4.5-1.3-7.1c0-2.6,0.4-5,1.3-7.1
		c0.9-2.1,2.1-3.9,3.7-5.4c1.6-1.5,3.5-2.6,5.6-3.4c2.2-0.8,4.5-1.2,7.1-1.2s4.9,0.4,7.1,1.2c2.2,0.8,4.1,1.9,5.6,3.4
		c1.6,1.5,2.8,3.3,3.7,5.4C93.1,36.9,93.5,39.3,93.5,41.9z M85.1,41.9c0-1.4-0.2-2.7-0.7-4c-0.5-1.2-1.1-2.3-1.9-3.2
		c-0.8-0.9-1.8-1.6-3-2.1c-1.2-0.5-2.4-0.8-3.8-0.8c-1.4,0-2.6,0.3-3.8,0.8c-1.1,0.5-2.1,1.2-3,2.1c-0.8,0.9-1.5,1.9-1.9,3.2
		c-0.4,1.2-0.7,2.6-0.7,4c0,1.5,0.2,2.8,0.7,4.1c0.5,1.2,1.1,2.3,1.9,3.2c0.8,0.9,1.8,1.6,2.9,2.1c1.1,0.5,2.4,0.8,3.8,0.8
		c1.4,0,2.6-0.3,3.8-0.8c1.1-0.5,2.1-1.2,3-2.1c0.8-0.9,1.5-2,1.9-3.2C84.8,44.8,85.1,43.4,85.1,41.9z"/>
	<path d="M106.5,32.5v6.7h12.6v6.5h-12.6v12.7h-7.8V25.7h21.5v6.7H106.5z"/>
	<path d="M133.1,32.5v6.7h12.6v6.5h-12.6v12.7h-7.8V25.7h21.5v6.7H133.1z"/>
	<path d="M151.8,58.4V25.7h22v6.6h-14.3v6.2H173v6.3h-13.6v6.8h15.2v6.7H151.8z"/>
	<path d="M179.8,58.4V25.7h22v6.6h-14.3v6.2H201v6.3h-13.6v6.8h15.2v6.7H179.8z"/>
</g>
<path d="M224,73H9V9h215V73z M0,0v82h315V51h-9v21.9h-73v-64h73v21.9h9V0H0z"/>
</svg>
